<?xml version="1.0" encoding="UTF-8"?>
<svg width="800px" height="280px" viewBox="0 0 800 280" version="1.1" xmlns="http://www.w3.org/2000/svg" xmlns:xlink="http://www.w3.org/1999/xlink">
    <!-- Generator: Sketch 51.3 (57544) - http://www.bohemiancoding.com/sketch -->
    <title>Logo</title>
    <desc>Created with Sketch.</desc>
    <defs></defs>
    <g id="Website" stroke="none" stroke-width="1" fill="none" fill-rule="evenodd">
        <g id="Dark-Mode" transform="translate(-245.000000, -16.000000)">
            <g id="Content-[40v-c]" transform="translate(-75.000000, 16.000000)">
                <g id="Header-[15v-c]">
                    <g id="Logo" transform="translate(320.000000, 0.000000)">
                        <rect id="Rectangle" fill="#1B2431" x="0" y="0" width="800" height="280"></rect>
                        <g id="Background" transform="translate(300.000000, 40.000000)" fill="#1991EB">
                            <path d="M100.00049,181.55021 L18.4499533,100.000163 L100.00049,18.44979 L181.550047,100.000163 L100.00049,181.55021 Z M19.0885867,100.000163 L100.00049,180.91174 L180.91174,100.000163 L100.00049,19.0884233 L19.0885867,100.000163 Z" id="Inner"></path>
                            <path d="M100,197.523683 L2.475536,100.000195 L3.025204,99.4507227 L100,2.47631733 L197.524464,100.000195 L100,197.523683 Z M4.673622,100.000195 L100,195.325792 L195.326573,100.000195 L100,4.67440333 L4.673622,100.000195 Z" id="Outer-2"></path>
                            <path d="M100.0004,199.8122 L0.188,100 L100.0004,0.1878 L199.812,100 L100.0004,199.8122 Z M0.9696,100 L100.0004,199.0304 L199.0302,100 L100.0004,0.9694 L0.9696,100 Z" id="Outer-1"></path>
                        </g>
                        <g id="Text" transform="translate(329.333333, 103.666667)" fill="#FFFFFF">
                            <path d="M35.9476667,62.842 C35.9476667,62.558443 36.089443,62.4166667 36.373,62.4166667 L42.9656667,62.4166667 C43.0816672,62.4166667 43.1815551,62.4537219 43.2653333,62.5278333 C43.3491115,62.6019448 43.391,62.706666 43.391,62.842 L43.391,64.8043333 C43.391,64.9010005 43.3523337,65.0024995 43.275,65.1088333 C43.1976663,65.2151672 43.0945562,65.2683333 42.9656667,65.2683333 L36.373,65.2683333 C36.089443,65.2683333 35.9476667,65.1136682 35.9476667,64.8043333 L35.9476667,62.842 Z M50.8085553,55.737 C50.8214443,55.6209994 50.8665549,55.5211115 50.9438886,55.4373333 C51.0212224,55.3535551 51.1307768,55.3116667 51.2725553,55.3116667 L54.617222,55.3116667 C54.8556676,55.3116667 55.0103327,55.4341099 55.081222,55.679 L57.7105553,64.4563333 L60.359222,55.679 C60.4494447,55.4341099 60.6137763,55.3116667 60.852222,55.3116667 L64.158222,55.3116667 C64.2742226,55.3116667 64.3789437,55.351944 64.4723886,55.4325 C64.5658336,55.513056 64.6189997,55.6145549 64.6318886,55.737 C64.8574453,58.0054558 65.0878319,60.2561555 65.3230553,62.4891667 C65.5582787,64.7221778 65.7886653,66.9728775 66.014222,69.2413333 L66.014222,69.2896667 C66.014222,69.5410013 65.8724456,69.6666667 65.5888886,69.6666667 L62.853222,69.6666667 C62.5567761,69.6666667 62.4021109,69.5248903 62.389222,69.2413333 L61.548222,61.769 L59.373222,69.2896667 C59.360333,69.3541114 59.3136113,69.431444 59.2330553,69.5216667 C59.1524994,69.6118893 59.0735557,69.657 58.996222,69.657 L56.4538886,69.657 C56.3765549,69.657 56.2943891,69.6135004 56.2073886,69.5265 C56.1203882,69.4394996 56.0736665,69.3605559 56.067222,69.2896667 L53.892222,61.7883333 L53.051222,69.2413333 C53.038333,69.5248903 52.8804457,69.6666667 52.5775553,69.6666667 L49.8418886,69.6666667 C49.5647761,69.6666667 49.426222,69.5248903 49.426222,69.2413333 L50.8085553,55.737 Z M70.351333,62.494 C70.351333,63.0288916 70.4415543,63.528331 70.6219996,63.9923333 C70.802445,64.4563357 71.0553869,64.8607205 71.380833,65.2055 C71.706279,65.5502795 72.0913307,65.8209435 72.5359996,66.0175 C72.9806685,66.2140565 73.4704414,66.3123333 74.005333,66.3123333 C74.5402245,66.3123333 75.0316085,66.2140565 75.4794996,66.0175 C75.9273908,65.8209435 76.3140536,65.5502795 76.6394996,65.2055 C76.9649457,64.8607205 77.2178876,64.4563357 77.398333,63.9923333 C77.5787783,63.528331 77.6689996,63.0288916 77.6689996,62.494 C77.6689996,61.9655529 77.5787783,61.4677246 77.398333,61.0005 C77.2178876,60.5332754 76.9649457,60.1256684 76.6394996,59.7776667 C76.3140536,59.4296649 75.9273908,59.1557788 75.4794996,58.956 C75.0316085,58.7562212 74.5402245,58.6563333 74.005333,58.6563333 C73.4704414,58.6563333 72.9806685,58.7562212 72.5359996,58.956 C72.0913307,59.1557788 71.706279,59.4296649 71.380833,59.7776667 C71.0553869,60.1256684 70.802445,60.5332754 70.6219996,61.0005 C70.4415543,61.4677246 70.351333,61.9655529 70.351333,62.494 Z M66.6199996,62.5036667 C66.6199996,61.8205521 66.7069988,61.1648365 66.8809996,60.5365 C67.0550005,59.9081635 67.3031091,59.3185028 67.625333,58.7675 C67.9475568,58.2164972 68.3326085,57.7154467 68.7804996,57.2643333 C69.2283908,56.81322 69.7262191,56.4281683 70.2739996,56.1091667 C70.8217802,55.7901651 71.4098298,55.5420564 72.0381663,55.3648333 C72.6665028,55.1876102 73.3222184,55.099 74.005333,55.099 C74.682003,55.099 75.3361076,55.1876102 75.9676663,55.3648333 C76.599225,55.5420564 77.1888858,55.7901651 77.7366663,56.1091667 C78.2844468,56.4281683 78.7838863,56.81322 79.2349996,57.2643333 C79.686113,57.7154467 80.0711647,58.2164972 80.3901663,58.7675 C80.7091679,59.3185028 80.9572765,59.9081635 81.1344996,60.5365 C81.3117227,61.1648365 81.400333,61.8205521 81.400333,62.5036667 C81.400333,63.1867812 81.3117227,63.8424969 81.1344996,64.4708333 C80.9572765,65.0991698 80.7091679,65.6856084 80.3901663,66.2301667 C80.0711647,66.7747249 79.686113,67.2709422 79.2349996,67.7188333 C78.7838863,68.1667245 78.2844468,68.5517762 77.7366663,68.874 C77.1888858,69.1962238 76.599225,69.4443325 75.9676663,69.6183333 C75.3361076,69.7923342 74.682003,69.8793333 74.005333,69.8793333 C73.3222184,69.8793333 72.6665028,69.7923342 72.0381663,69.6183333 C71.4098298,69.4443325 70.8217802,69.1962238 70.2739996,68.874 C69.7262191,68.5517762 69.2283908,68.1667245 68.7804996,67.7188333 C68.3326085,67.2709422 67.9475568,66.7747249 67.625333,66.2301667 C67.3031091,65.6856084 67.0550005,65.0991698 66.8809996,64.4708333 C66.7069988,63.8424969 66.6199996,63.1867812 66.6199996,62.5036667 Z M94.9111106,62.5036667 C94.9111106,63.1867812 94.8241115,63.8360525 94.6501106,64.4515 C94.4761098,65.0669475 94.2280011,65.6404973 93.9057773,66.1721667 C93.5835535,66.703836 93.1985018,67.1855534 92.7506106,67.6173333 C92.3027195,68.0491133 91.8065022,68.4164429 91.261944,68.7193333 C90.7173857,69.0222237 90.129336,69.2558325 89.4977773,69.4201667 C88.8662186,69.5845008 88.212114,69.6666667 87.535444,69.6666667 L82.7697773,69.6666667 C82.6537767,69.6666667 82.5506666,69.6408891 82.460444,69.5893333 C82.3702213,69.5377775 82.3251106,69.4282231 82.3251106,69.2606667 L82.3251106,55.7563333 C82.3251106,55.6209993 82.3621658,55.5114449 82.4362773,55.4276667 C82.5103888,55.3438885 82.6215543,55.302 82.7697773,55.302 L87.535444,55.302 C88.212114,55.302 88.8646075,55.3857769 89.492944,55.5533333 C90.1212804,55.7208897 90.707719,55.9593318 91.2522773,56.2686667 C91.7968356,56.5780015 92.2946639,56.9485534 92.7457773,57.3803333 C93.1968907,57.8121133 93.5819424,58.2954418 93.900944,58.8303333 C94.2199456,59.3652249 94.4680542,59.9419969 94.6452773,60.5606667 C94.8225004,61.1793364 94.9111106,61.8269966 94.9111106,62.5036667 Z M86.0661106,58.7723333 L86.0661106,66.206 L86.8781106,66.206 C87.0263336,66.206 87.1713321,66.2011667 87.3131106,66.1915 C87.4548891,66.1818333 87.5966655,66.1705556 87.738444,66.1576667 C88.2217797,66.1189998 88.6728863,66.0013899 89.0917773,65.8048333 C89.5106683,65.6082768 89.8763868,65.3505016 90.188944,65.0315 C90.5015011,64.7124984 90.7463875,64.3371133 90.9236106,63.9053333 C91.1008337,63.4735534 91.189444,63.0031137 91.189444,62.494 C91.189444,61.952664 91.087945,61.4548356 90.884944,61.0005 C90.6819429,60.5461644 90.4064457,60.1530572 90.058444,59.8211667 C89.7104422,59.4892761 89.3028352,59.2315009 88.8356106,59.0478333 C88.3683861,58.8641657 87.8705577,58.7723333 87.3421106,58.7723333 L86.0661106,58.7723333 Z M96.1452216,55.7563333 C96.1452216,55.6209993 96.1822768,55.513056 96.2563883,55.4325 C96.3304998,55.351944 96.4352209,55.3116667 96.5705549,55.3116667 L106.169555,55.3116667 C106.311333,55.3116667 106.420888,55.3535551 106.498222,55.4373333 C106.575555,55.5211115 106.614222,55.6338882 106.614222,55.7756667 L106.614222,58.173 C106.614222,58.2825561 106.575555,58.3872773 106.498222,58.4871667 C106.420888,58.5870561 106.308111,58.637 106.159888,58.637 L99.8958883,58.637 L99.8958883,61.0246667 L104.729222,61.0246667 C104.851667,61.0246667 104.953166,61.0536664 105.033722,61.1116667 C105.114278,61.169667 105.154555,61.2663327 105.154555,61.4016667 L105.154555,63.4896667 C105.154555,63.5798893 105.119111,63.6668885 105.048222,63.7506667 C104.977332,63.8344449 104.874222,63.8763333 104.738888,63.8763333 L99.8958883,63.8763333 L99.8958883,66.3413333 L106.391888,66.3413333 C106.68189,66.3413333 106.826888,66.4895541 106.826888,66.786 L106.826888,69.222 C106.826888,69.2864448 106.801111,69.3444442 106.749555,69.396 C106.723777,69.5764453 106.591667,69.6666667 106.353222,69.6666667 L96.5705549,69.6666667 C96.4416654,69.6666667 96.3385553,69.6328337 96.2612216,69.5651667 C96.1838879,69.4974997 96.1452216,69.3927785 96.1452216,69.251 L96.1452216,55.7563333 Z M112.736444,62.842 C112.736444,62.558443 112.87822,62.4166667 113.161777,62.4166667 L119.754444,62.4166667 C119.870444,62.4166667 119.970332,62.4537219 120.05411,62.5278333 C120.137888,62.6019448 120.179777,62.706666 120.179777,62.842 L120.179777,64.8043333 C120.179777,64.9010005 120.141111,65.0024995 120.063777,65.1088333 C119.986443,65.2151672 119.883333,65.2683333 119.754444,65.2683333 L113.161777,65.2683333 C112.87822,65.2683333 112.736444,65.1136682 112.736444,64.8043333 L112.736444,62.842 Z" id="--MODE--"></path>
                            <g id="Dark" transform="translate(0.188825, 0.015414)">
                                <path d="M132.61614,42.4095774 C132.61614,42.4095774 54.4429756,44.6641957 22.6376176,50.4825957 C22.6376176,50.4825957 26.5404976,49.6286657 23.6776936,53.3108757 C23.6776936,53.3108757 30.0803083,50.3445907 129.802814,43.342724 C129.802814,43.342724 137.546063,42.0883007 132.61614,42.4095774 Z" id="Shape-8" transform="translate(78.447832, 47.833908) rotate(4.000000) translate(-78.447832, -47.833908) "></path>
                                <path d="M101.362987,29.8994407 C101.433294,29.7628167 101.504912,29.6245318 101.577842,29.4845857 C102.400068,27.9068001 103.366725,26.1512621 104.477842,24.2179191 C105.588959,22.2845761 106.788947,20.3290401 108.077842,18.3512524 C109.366737,16.3734647 110.700057,14.4290397 112.077842,12.5179191 C113.455627,10.6067984 114.833391,8.87348241 116.211175,7.31791908 C117.58896,5.76235574 118.92228,4.42903574 120.211175,3.31791908 C121.500071,2.20680241 122.700059,1.47347641 123.811175,1.11791908 C124.300067,0.940140408 124.877839,0.862363408 125.544509,0.884585742 C126.211179,0.906808075 126.88895,1.06236208 127.577842,1.35125241 C128.266734,1.64014274 128.900061,2.08458274 129.477842,2.68458574 C130.055623,3.28458874 130.500063,4.07346974 130.811175,5.05125241 C130.988954,5.71792241 130.72229,6.64013541 130.011175,7.81791908 C129.300061,8.99570274 128.277849,10.3179117 126.944509,11.7845857 C125.611169,13.2512597 124.055629,14.8179107 122.277842,16.4845857 C120.500055,18.1512607 118.633407,19.8179107 116.677842,21.4845857 C114.722277,23.1512607 112.766741,24.7623557 110.811175,26.3179191 C108.85561,27.8734824 107.055628,29.2512464 105.411175,30.4512524 L104.211175,33.0512524 C105.766739,31.8068017 107.233391,30.6512577 108.611175,29.5845857 C109.766737,28.6956924 110.91117,27.8623674 112.044509,27.0845857 C113.177848,26.3068041 113.988951,25.8290311 114.477842,25.6512524 C114.788955,25.6068077 115.111174,25.6734737 115.444509,25.8512524 C115.777844,26.0290311 116.088952,26.2623621 116.377842,26.5512524 C116.666732,26.8401427 116.888952,27.1623617 117.044509,27.5179191 C117.200065,27.8734764 117.25562,28.1845844 117.211175,28.4512524 C117.166731,28.6734757 116.9334,28.8845847 116.511175,29.0845857 C116.088951,29.2845867 115.544512,29.4845847 114.877842,29.6845857 C114.211172,29.8845867 113.466735,30.0956957 112.644509,30.3179191 C111.822282,30.5401424 110.966735,30.8068064 110.077842,31.1179191 C109.855619,31.6068104 109.666732,32.0956944 109.511175,32.5845857 C109.355619,33.0734771 109.388952,33.4956951 109.611175,33.8512524 C109.700065,34.0734757 110.244504,34.0179207 111.244509,33.6845857 C112.244514,33.3512507 113.355614,32.9179217 114.577842,32.3845857 C115.80007,31.8512497 116.977836,31.3179217 118.111175,30.7845857 C119.244514,30.2512497 119.988951,29.8512537 120.344509,29.5845857 C121.144513,29.0068051 121.788951,28.7290301 122.277842,28.7512524 C122.766733,28.7734747 122.700067,29.2512477 122.077842,30.1845857 C121.67784,30.6290324 121.044513,31.1956934 120.177842,31.8845857 C119.311171,32.5734781 118.355625,33.2734711 117.311175,33.9845857 C116.266726,34.6957004 115.233403,35.3623604 114.211175,35.9845857 C113.188948,36.6068111 112.344512,37.0734731 111.677842,37.3845857 C111.011172,37.6956984 110.344512,37.7734754 109.677842,37.6179191 C109.011172,37.4623627 108.400067,37.1956987 107.844509,36.8179191 C107.28895,36.4401394 106.811177,36.0512544 106.411175,35.6512524 C106.011173,35.2512504 105.766731,34.9401424 105.677842,34.7179191 C105.544508,34.5401404 105.488953,34.3401424 105.511175,34.1179191 C105.533398,33.8956957 105.566731,33.6734757 105.611175,33.4512524 C104.855616,33.9401437 104.200067,34.5512487 103.644509,35.2845857 C103.08895,36.0179227 102.677843,36.8512477 102.411175,37.7845857 C102.100063,38.0512537 101.744511,38.1623637 101.344509,38.1179191 C100.944507,38.0734744 100.555622,37.9401424 100.177842,37.7179191 C99.8000623,37.4956957 99.4889543,37.2179207 99.2445087,36.8845857 C99.000063,36.5512507 98.877842,36.2290317 98.877842,35.9179191 C98.877842,35.8775091 98.8803368,35.8332436 98.8853263,35.7851227 C98.5577192,36.1264962 98.2218917,36.4596499 97.877842,36.7845857 C97.077838,37.5401451 96.277846,38.0734731 95.477842,38.3845857 C95.1222847,38.5179197 94.6222897,38.5179197 93.977842,38.3845857 C93.3333943,38.2512517 92.6778453,38.0290317 92.0111753,37.7179191 C91.3445053,37.4068064 90.7667333,36.9956994 90.277842,36.4845857 C89.7889507,35.9734721 89.5667307,35.3845891 89.6111753,34.7179191 C89.6111753,34.1401384 89.7556183,33.5290334 90.0445087,32.8845857 C90.333399,32.2401381 90.655618,31.5401451 91.0111753,30.7845857 C90.2111713,31.0068091 89.3889573,31.0290311 88.5445087,30.8512524 C88.4402551,30.8293043 88.3383727,30.805324 88.2388613,30.7793115 C88.1895358,30.8457074 88.1358627,30.9141321 88.077842,30.9845857 C87.7222847,31.3845877 87.2334007,31.9734707 86.6111753,32.7512524 C85.98895,33.5290341 85.344512,34.3179151 84.677842,35.1179191 C84.011172,35.9179231 83.344512,36.6290271 82.677842,37.2512524 C82.011172,37.8734777 81.455622,38.2290297 81.0111753,38.3179191 C80.4333947,38.4512531 79.6222917,38.3623651 78.577842,38.0512524 C77.5333923,37.7401397 76.6334013,37.2734777 75.877842,36.6512524 C75.3000613,37.0512544 74.7445113,37.4401394 74.2111753,37.8179191 C73.6778393,38.1956987 73.1445113,38.4734737 72.6111753,38.6512524 C72.122284,38.7401417 71.52229,38.7179197 70.8111753,38.5845857 C70.1000607,38.4512517 69.4000677,38.1956987 68.7111753,37.8179191 C68.022283,37.4401394 67.411178,36.9845884 66.877842,36.4512524 C66.344506,35.9179164 65.988954,35.2957004 65.8111753,34.5845857 C65.6333967,33.8290264 65.8222837,32.9290354 66.377842,31.8845857 C66.9334003,30.8401361 67.6111713,29.8512571 68.4111753,28.9179191 C69.2111793,27.9845811 70.0445043,27.1734781 70.9111753,26.4845857 C71.7778463,25.7956934 72.4556173,25.4290304 72.9445087,25.3845857 C73.2556213,25.3401411 73.6445063,25.3623631 74.1111753,25.4512524 C74.5778443,25.5401417 75.0445063,25.6956957 75.5111753,25.9179191 C75.9778443,26.1401424 76.4000623,26.4068064 76.777842,26.7179191 C77.1556217,27.0290317 77.4111747,27.3845837 77.5445087,27.7845857 C78.166734,27.2512497 78.700062,27.0068077 79.1445087,27.0512524 C79.500066,27.1401417 79.87784,27.2512517 80.277842,27.3845857 C80.677844,27.5179197 81.044507,27.6734737 81.377842,27.8512524 C81.711177,28.0290311 81.988952,28.2512511 82.2111753,28.5179191 C82.4333987,28.7845871 82.5222867,29.0734731 82.477842,29.3845857 C82.477842,29.7401431 82.300066,30.2179161 81.9445087,30.8179191 C81.5889513,31.4179221 81.2111773,32.0290271 80.8111753,32.6512524 C80.4111733,33.2734777 80.0778433,33.8290277 79.8111753,34.3179191 C79.5445073,34.8068104 79.5000633,35.1179184 79.677842,35.2512524 C79.811176,35.3401417 80.111173,35.2401427 80.577842,34.9512524 C81.044511,34.6623621 81.611172,34.2623661 82.277842,33.7512524 C82.944512,33.2401387 83.688949,32.6512557 84.5111753,31.9845857 C85.2479873,31.3871707 85.9758668,30.7540739 86.6948316,30.08528 C86.619847,30.0317687 86.5475172,29.9759817 86.477842,29.9179191 C85.944506,29.4734724 85.633398,28.9290334 85.5445087,28.2845857 C85.4556193,27.6401381 85.7445053,26.9401451 86.4111753,26.1845857 C87.12229,25.3401371 87.822283,24.8734751 88.5111753,24.7845857 C89.2000677,24.6956964 89.7445067,24.8401394 90.1445087,25.2179191 C90.5445107,25.5956987 90.7333977,26.1290267 90.7111753,26.8179191 C90.688953,27.5068114 90.32229,28.1845824 89.6111753,28.8512524 C89.788954,29.0290311 90.055618,29.1068081 90.4111753,29.0845857 C90.7667327,29.0623634 91.1333957,28.9845864 91.5111753,28.8512524 C91.888955,28.7179184 92.244507,28.5623644 92.577842,28.3845857 C92.911177,28.2068071 93.144508,28.0512531 93.277842,27.9179191 C93.3667313,27.7401404 93.6000623,27.6512524 93.977842,27.6512524 C94.3556217,27.6512524 94.7445067,27.7290294 95.1445087,27.8845857 C95.5445107,28.0401421 95.9111737,28.2623621 96.2445087,28.5512524 C96.5778437,28.8401427 96.7889527,29.1845837 96.877842,29.5845857 C96.9222867,29.9401431 96.7556217,30.4512491 96.377842,31.1179191 C96.0000623,31.7845891 95.6000663,32.4401381 95.177842,33.0845857 C94.7556177,33.7290334 94.4333987,34.2956944 94.2111753,34.7845857 C93.988952,35.2734771 94.055618,35.5179191 94.4111753,35.5179191 C94.7667327,35.5179191 95.2889497,35.2623661 95.977842,34.7512524 C96.6667343,34.2401387 97.3889493,33.6512557 98.1445087,32.9845857 C98.900068,32.3179157 99.611172,31.6512557 100.277842,30.9845857 L101.362987,29.8994407 Z M16.4111753,10.2512524 C18.9000767,8.47346574 21.6778267,6.99570274 24.7445087,5.81791908 C27.8111907,4.64013541 30.9556037,3.76236641 34.177842,3.18458574 C37.4000803,2.60680508 40.6111593,2.36236308 43.8111753,2.45125241 C47.0111913,2.54014174 49.9778283,2.97347074 52.7111753,3.75125241 C55.4445223,4.52903408 57.8667203,5.65124508 59.977842,7.11791908 C62.0889637,8.58459308 63.7000587,10.4067971 64.8111753,12.5845857 C65.8778473,14.8068191 66.3556203,17.0734631 66.2445087,19.3845857 C66.133397,21.6957084 65.61118,23.9956854 64.677842,26.2845857 C63.744504,28.5734861 62.455628,30.7845751 60.8111753,32.9179191 C59.1667227,35.0512631 57.3222967,37.0290211 55.277842,38.8512524 C52.1222707,41.6512664 48.4889737,44.1956854 44.377842,46.4845857 C40.2667103,48.7734861 35.9445313,50.5179131 31.4111753,51.7179191 C26.8778193,52.9179251 22.2556433,53.4623641 17.5445087,53.3512524 C12.833374,53.2401407 8.322308,52.1845957 4.01117534,50.1845857 C3.07783734,49.7401391 2.30006734,49.2956991 1.677842,48.8512524 C1.05561667,48.4068057 0.688953671,48.0512537 0.577842004,47.7845857 C0.466730337,47.5179177 0.644506337,47.3956967 1.11117534,47.4179191 C1.57784434,47.4401414 2.45561334,47.6956944 3.74450867,48.1845857 C6.67785667,49.3845917 9.80004767,49.9956967 13.1111753,50.0179191 C16.422303,50.0401414 19.677826,49.6957004 22.877842,48.9845857 C22.7889527,47.4734671 22.9333957,45.6623741 23.3111753,43.5512524 C23.688955,41.4401307 24.211172,39.2401527 24.877842,36.9512524 C25.544512,34.6623521 26.333393,32.3845971 27.2445087,30.1179191 C28.1556243,27.8512411 29.0889483,25.7957061 30.0445087,23.9512524 C31.000069,22.1067987 31.933393,20.5734807 32.8445087,19.3512524 C33.7556243,18.1290241 34.5889493,17.4068091 35.3445087,17.1845857 C36.0556233,17.0068071 36.7889493,16.9179191 37.5445087,16.9179191 C38.300068,16.9179191 38.955617,16.9956961 39.5111753,17.1512524 C40.0667337,17.3068087 40.4667297,17.5290287 40.7111753,17.8179191 C40.955621,18.1068094 40.922288,18.4068064 40.6111753,18.7179191 C39.7667267,19.6957017 38.7000707,21.2290197 37.4111753,23.3179191 C36.12228,25.4068184 34.833404,27.7956834 33.5445087,30.4845857 C32.2556133,33.1734881 31.0556253,36.0179041 29.9445087,39.0179191 C28.833392,42.0179341 28.055622,44.9401271 27.6111753,47.7845857 C30.9000807,46.9401371 34.2444917,45.6512611 37.6445087,43.9179191 C41.0445257,42.1845771 44.2556047,40.1957081 47.277842,37.9512524 C50.3000793,35.7067967 53.0222743,33.2957097 55.4445087,30.7179191 C57.866743,28.1401284 59.733391,25.5845984 61.0445087,23.0512524 C62.3556263,20.5179064 63.0111753,18.1068194 63.0111753,15.8179191 C63.0111753,13.5290187 62.1000733,11.5623717 60.277842,9.91791908 C58.7222787,8.45124508 56.7334097,7.44014408 54.3111753,6.88458574 C51.888941,6.32902741 49.244523,6.12902941 46.377842,6.28458574 C43.511161,6.44014208 40.522302,6.90680408 37.4111753,7.68458574 C34.3000487,8.46236741 31.2778567,9.46235741 28.3445087,10.6845857 C25.4111607,11.9068141 22.6556327,13.3068001 20.077842,14.8845857 C17.5000513,16.4623714 15.3000733,18.1179104 13.477842,19.8512524 C13.0333953,20.2512544 12.7000653,20.1512554 12.477842,19.5512524 C12.2556187,18.9512494 12.2111747,18.1179244 12.3445087,17.0512524 C12.4778427,15.9845804 12.8667277,14.8179254 13.5111753,13.5512524 C14.155623,12.2845794 15.12228,11.1845904 16.4111753,10.2512524 Z M128.344509,3.51791908 C128.16673,3.29569574 127.744512,3.45124974 127.077842,3.98458574 C126.411172,4.51792174 125.588958,5.28458074 124.611175,6.28458574 C123.633393,7.28459074 122.555626,8.46235674 121.377842,9.81791908 C120.200058,11.1734814 119.011181,12.5845784 117.811175,14.0512524 C115.011161,17.4734917 111.855637,21.4067857 108.344509,25.8512524 C108.922289,25.4068057 109.844502,24.5957027 111.111175,23.4179191 C112.377848,22.2401354 113.788945,20.8845934 115.344509,19.3512524 C116.900072,17.8179114 118.500056,16.1957054 120.144509,14.4845857 C121.788961,12.7734661 123.255613,11.1623711 124.544509,9.65125241 C125.833404,8.14013374 126.844505,6.82903574 127.577842,5.71791908 C128.311179,4.60680241 128.566732,3.87347641 128.344509,3.51791908 Z M70.2111753,36.2512524 C70.7000667,36.5179204 71.3111717,36.3734774 72.0445087,35.8179191 C72.7778457,35.2623607 73.4778387,34.5623677 74.1445087,33.7179191 C74.8111787,32.8734704 75.3778397,32.0068124 75.8445087,31.1179191 C76.3111777,30.2290257 76.5445087,29.5623657 76.5445087,29.1179191 C76.36673,28.7179171 76.055622,28.6068071 75.6111753,28.7845857 C75.1667287,28.9623644 74.6778447,29.2956944 74.1445087,29.7845857 C73.6111727,30.2734771 73.0667337,30.8734711 72.5111753,31.5845857 C71.955617,32.2957004 71.477844,32.9734714 71.077842,33.6179191 C70.67784,34.2623667 70.377843,34.8401387 70.177842,35.3512524 C69.977841,35.8623661 69.988952,36.1623631 70.2111753,36.2512524 Z"></path>
                            </g>
                        </g>
                    </g>
                </g>
            </g>
        </g>
    </g>
</svg>