<?xml version="1.0" encoding="UTF-8"?>
<svg width="20px" height="20px" viewBox="0 0 20 20" version="1.1" xmlns="http://www.w3.org/2000/svg" xmlns:xlink="http://www.w3.org/1999/xlink">
    <!-- Generator: Sketch 51.2 (57519) - http://www.bohemiancoding.com/sketch -->
    <title>messenger</title>
    <desc>Created with Sketch.</desc>
    <defs></defs>
    <g id="Website" stroke="none" stroke-width="1" fill="none" fill-rule="evenodd">
        <g id="Dark-Mode" transform="translate(-426.000000, -3069.000000)" fill="#FFFFFF">
            <g id="Content-[40v-c]" transform="translate(-75.000000, 60.000000)">
                <g id="Social-Connects-[40v-c]" transform="translate(355.000000, 2836.000000)">
                    <g id="Content-[20v-c]" transform="translate(0.000000, 103.000000)">
                        <g id="Messenger-[20h-m]" transform="translate(0.000000, 60.000000)">
                            <g id="Large-[c-m]">
                                <g id="Label" transform="translate(146.000000, 10.000000)">
                                    <path d="M10.9574144,12.413 L8.35552394,9.753 L3.34383576,12.48 L8.83829657,6.743 L11.440187,9.403 L16.4518752,6.676 L10.9574144,12.413 Z M9.89734729,0 C4.3408883,0 0,4.144 0,9.257 C0,12.165 0.852728936,14.76 3.90181929,16.457 L3.90181929,20 L7.17146051,18.126 C8.08720398,18.378 8.97550564,18.513 9.97967273,18.513 C15.5361317,18.513 20,14.369 20,9.257 C20,4.144 15.4548226,0 9.89734729,0 L9.89734729,0 Z" id="messenger"></path>
                                </g>
                            </g>
                        </g>
                    </g>
                </g>
            </g>
        </g>
    </g>
</svg>