<?xml version="1.0" encoding="UTF-8"?>
<svg width="20px" height="16px" viewBox="0 0 20 16" version="1.1" xmlns="http://www.w3.org/2000/svg" xmlns:xlink="http://www.w3.org/1999/xlink">
    <!-- Generator: Sketch 51.2 (57519) - http://www.bohemiancoding.com/sketch -->
    <title>twitter</title>
    <desc>Created with Sketch.</desc>
    <defs></defs>
    <g id="Website" stroke="none" stroke-width="1" fill="none" fill-rule="evenodd">
        <g id="Dark-Mode" transform="translate(-450.000000, -3131.000000)" fill="#FFFFFF">
            <g id="Content-[40v-c]" transform="translate(-75.000000, 60.000000)">
                <g id="Social-Connects-[40v-c]" transform="translate(355.000000, 2836.000000)">
                    <g id="Content-[20v-c]" transform="translate(0.000000, 103.000000)">
                        <g id="Twitter-[20h-m]" transform="translate(0.000000, 120.000000)">
                            <g id="Large-[c-m]">
                                <g id="Label" transform="translate(170.000000, 10.000000)">
                                    <path d="M6.29,18 C13.837,18 17.965,11.8436531 17.965,6.50546136 C17.965,6.33021272 17.965,6.15594862 17.953,5.98266906 C18.756,5.41163417 19.449,4.70276326 20,3.89149989 C19.252,4.21836814 18.457,4.4329985 17.644,4.52751462 C18.5,4.0224441 19.141,3.2289025 19.448,2.29260218 C18.642,2.7632137 17.761,3.09500467 16.842,3.27320694 C15.288,1.64674202 12.689,1.56797859 11.036,3.09795829 C9.971,4.08447031 9.518,5.55537743 9.849,6.9583511 C6.55,6.79491698 3.476,5.2609991 1.392,2.73761558 C0.303,4.58363357 0.86,6.9445675 2.663,8.12995718 C2.01,8.11125087 1.371,7.93797131 0.8,7.62488666 L0.8,7.67608289 C0.801,9.59889523 2.178,11.2548964 4.092,11.6359145 C3.488,11.7983641 2.854,11.8219931 2.24,11.7048325 C2.777,13.3509883 4.318,14.47829 6.073,14.5107799 C4.62,15.6351279 2.825,16.2455445 0.977,16.2435754 C0.651,16.2425909 0.325,16.2238846 0,16.1854874 C1.877,17.3708771 4.06,18 6.29,17.9970464" id="twitter"></path>
                                </g>
                            </g>
                        </g>
                    </g>
                </g>
            </g>
        </g>
    </g>
</svg>
